<svg xmlns="http://www.w3.org/2000/svg" xmlns:xlink="http://www.w3.org/1999/xlink" width="47" height="65" version="1.1" viewBox="0 0 47 65"><g id="Page-1" fill="none" fill-rule="evenodd" stroke="none" stroke-width="1"><g id="bulb" stroke="#505050" stroke-width="4" transform="translate(-2.000000, -398.000000)"><g id="bug" transform="translate(0.000000, 400.000000)"><path id="Combined-Shape" d="M28.0433753,25.0627492 C28.0433753,25.0627492 17.9160523,6.44078065 9.15111096,7.38054355 C4.53525757,7.87643494 3.70912988,12.7542052 4.82106664,16.3663466 C5.97432646,20.1140153 11.2280952,26.6087945 20.5911262,25.8627653 L28.0433753,25.0627492"/><path id="Combined-Shape" fill="#FFC900" d="M28.5494177,25.3410941 C28.5494177,25.3410941 10.8809657,13.6292971 12.5810675,4.97961477 C13.47737,0.424545882 18.4085806,0.0266875448 21.910065,1.44921191 C25.5429595,2.92471409 31.555128,8.72454792 29.9958958,17.9869291 L28.5494177,25.3410941 Z M28.5683329,31.7604992 C28.5683329,31.7604992 29.0121898,37.732829 32.7557719,38.5854835 C32.7557719,38.5854835 31.1380305,45.1012635 23.7073217,47.6048821 C12.7958407,51.2834774 9.48054153,46.836556 8.96854876,44.0443466 C7.75378264,37.4217506 15.3441242,32.1259226 19.6931426,31.3838321 C26.1271202,30.2875619 28.5683329,31.7604992 28.5683329,31.7604992 Z M40.3503635,35.6795604 C36.7765477,35.6795604 33.8793975,32.5742468 33.8793975,28.7436483 C33.8793975,24.9130499 36.7765477,21.8077363 40.3503635,21.8077363 C43.9241794,21.8077363 46.8213296,24.9130499 46.8213296,28.7436483 C46.8213296,32.5742468 43.9241794,35.6795604 40.3503635,35.6795604 Z"/><polyline id="Path-3" points="28.193 43.552 36.248 45 40.047 50.579" transform="translate(34.120252, 47.065441) rotate(19.000000) translate(-34.120252, -47.065441)"/><polyline id="Path-3" points="21.581 47.925 28.818 51.45 30.656 57.795" transform="translate(26.118920, 52.859960) rotate(19.000000) translate(-26.118920, -52.859960)"/><polyline id="Path-3" points="14.383 49.281 17.828 56.055 15.095 62.127" transform="translate(16.105423, 55.704411) rotate(19.000000) translate(-16.105423, -55.704411)"/></g></g></g></svg>